<?xml version="1.0" standalone="no"?>
<!DOCTYPE svg PUBLIC "-//W3C//DTD SVG 20010904//EN"
 "http://www.w3.org/TR/2001/REC-SVG-20010904/DTD/svg10.dtd">
<svg version="1.0" xmlns="http://www.w3.org/2000/svg"
 width="2002.000000pt" height="711.000000pt" viewBox="0 0 2002.000000 711.000000"
 preserveAspectRatio="xMidYMid meet">

<g transform="translate(0.000000,711.000000) scale(0.100000,-0.100000)"
fill="#000000" stroke="none">
<path d="M5733 4562 c-21 -13 -31 -57 -42 -173 -11 -122 -15 -278 -12 -451 2
-72 -1 -108 -8 -108 -6 0 -11 18 -11 40 0 74 -30 107 -91 98 -24 -3 -72 -63
-66 -82 2 -6 32 -21 67 -32 62 -21 62 -21 29 -26 -21 -3 -50 2 -78 14 -60 25
-74 17 -26 -15 22 -15 33 -27 25 -27 -9 0 -33 12 -54 27 l-39 26 21 18 c30 24
28 33 -13 55 -44 23 -65 13 -83 -41 -13 -40 -13 -43 24 -247 17 -93 25 -111
39 -88 3 6 19 10 35 10 31 0 40 14 40 66 0 25 -11 48 -40 85 -54 68 -51 89 4
31 25 -26 75 -63 113 -82 59 -30 73 -44 109 -100 22 -36 55 -80 72 -98 36 -38
38 -42 18 -42 -18 0 -68 58 -85 97 -8 19 -18 30 -26 27 -9 -4 -15 4 -17 23 -3
29 -52 64 -110 78 l-28 7 0 -72 c0 -45 4 -69 10 -65 6 3 10 24 10 46 0 42 4
44 59 33 30 -6 61 -47 61 -80 0 -20 -50 -54 -79 -53 -23 0 -24 1 -6 9 13 6 15
9 5 9 -8 0 -26 -8 -40 -19 -49 -38 -99 -20 -133 47 -39 75 -81 330 -65 394 8
30 8 63 -1 118 -6 42 -15 121 -20 176 -11 119 -23 155 -51 155 -33 0 -40 -40
-40 -238 2 -440 17 -639 65 -802 9 -30 29 -102 44 -160 16 -58 36 -127 44
-155 9 -27 24 -78 33 -112 10 -34 24 -65 32 -68 21 -8 340 -28 356 -22 9 4 15
34 20 94 3 48 10 111 16 138 5 28 14 77 21 110 16 87 24 121 48 207 12 44 21
107 21 145 0 62 -3 73 -36 121 -19 29 -42 56 -49 59 -8 2 -32 33 -54 68 -22
35 -50 70 -63 79 -12 9 -17 16 -10 16 26 0 54 -22 81 -66 l29 -44 5 127 c10
242 -5 671 -25 703 -13 21 -34 25 -55 12z"/>
<path d="M418 4301 c-31 -25 -45 -86 -58 -251 -5 -69 -12 -138 -15 -155 -3
-16 -9 -90 -13 -164 -8 -155 -12 -162 -83 -140 -68 22 -73 38 -79 286 -5 211
-5 213 -31 238 -34 34 -97 45 -115 20 -17 -22 -18 -162 -4 -427 10 -201 23
-246 84 -293 33 -25 41 -27 103 -22 38 3 80 9 94 12 l27 7 6 -189 c3 -103 7
-240 9 -303 l2 -115 -149 -5 c-99 -3 -151 -9 -153 -16 -7 -21 684 -39 780 -20
50 9 37 26 -21 27 -26 0 -65 3 -87 7 l-40 7 -6 65 c-5 60 -6 61 -7 17 -1 -27
-7 -57 -12 -68 -15 -27 -40 -24 -40 5 0 14 -4 28 -10 31 -6 4 -10 -7 -10 -24
0 -36 -25 -43 -36 -9 -3 11 -4 71 -1 132 3 61 2 91 -2 66 -11 -67 -19 -31 -25
115 -4 72 -10 175 -15 230 -18 190 -25 498 -12 536 6 20 14 98 16 175 6 163 5
156 14 124 5 -14 7 -59 5 -99 -2 -59 0 -71 12 -67 8 3 14 1 14 -3 0 -5 -5 -11
-12 -13 -8 -3 -11 -22 -9 -53 2 -56 10 -73 23 -54 5 9 8 -27 6 -94 -2 -59 0
-107 4 -107 4 0 9 12 11 28 2 15 5 3 6 -28 2 -30 5 -64 7 -75 3 -11 10 -128
15 -260 10 -260 12 -292 22 -302 4 -3 7 -30 7 -60 0 -55 5 -63 24 -38 6 8 44
24 85 35 87 24 187 72 212 101 23 27 27 61 33 292 10 333 -24 450 -125 435
-47 -6 -58 -54 -65 -302 -8 -260 -13 -277 -84 -296 -29 -8 -45 -8 -54 -1 -9 8
-15 62 -19 178 -4 93 -13 215 -21 273 -19 138 -34 282 -42 405 -3 55 -13 118
-21 140 -30 78 -93 107 -145 66z m-269 -236 c14 -39 14 -385 0 -385 -5 0 -9
11 -9 24 0 14 -5 28 -11 32 -8 5 -10 42 -7 121 3 62 1 116 -3 119 -5 3 -10
-30 -11 -73 l-2 -78 -5 95 c-4 66 -2 105 6 127 15 38 16 46 4 39 -10 -6 -23
19 -14 27 11 11 40 -17 52 -48z m796 -402 c-1 -54 0 -68 2 -30 2 37 8 67 13
67 13 0 13 -307 0 -315 -5 -3 -11 28 -13 77 -1 46 -3 18 -4 -62 0 -80 3 -127
6 -105 8 54 17 34 20 -45 2 -68 -13 -130 -28 -114 -10 11 -34 244 -27 265 3 8
7 84 10 169 3 132 10 190 21 190 1 0 1 -44 0 -97z m-803 -25 c5 -15 14 -25 19
-22 5 3 9 0 9 -6 0 -6 22 -21 50 -33 27 -12 50 -27 50 -33 0 -6 -19 -14 -41
-18 -77 -12 -120 43 -118 151 1 55 1 56 10 23 6 -19 15 -47 21 -62z"/>
<path d="M116 4003 c-6 -14 -5 -15 5 -6 7 7 10 15 7 18 -3 3 -9 -2 -12 -12z"/>
<path d="M200 3540 c0 -5 5 -10 10 -10 6 0 10 5 10 10 0 6 -4 10 -10 10 -5 0
-10 -4 -10 -10z"/>
<path d="M16028 4300 c-30 -23 -43 -82 -58 -255 -5 -66 -14 -158 -20 -205 -5
-47 -10 -119 -10 -161 0 -89 -11 -105 -62 -94 -48 10 -74 30 -83 62 -4 15 -10
121 -14 235 -6 205 -6 208 -32 233 -34 34 -97 45 -115 20 -17 -22 -18 -162 -4
-427 10 -201 23 -246 84 -293 33 -25 41 -27 103 -22 38 3 80 9 94 12 l26 7 7
-159 c3 -87 9 -224 12 -305 l7 -147 -153 -3 c-104 -2 -155 -7 -157 -14 -7 -21
684 -39 780 -20 50 9 37 26 -21 27 -26 0 -65 3 -87 7 l-40 7 -6 65 c-5 60 -6
61 -7 17 -1 -27 -7 -57 -12 -68 -15 -27 -40 -24 -40 5 0 14 -4 28 -10 31 -6 4
-10 -7 -10 -24 0 -36 -25 -43 -36 -9 -3 11 -4 71 -1 132 3 61 2 91 -2 66 -6
-44 -7 -44 -14 -15 -4 17 -7 55 -6 85 0 30 -4 107 -10 170 -29 295 -38 599
-21 645 6 15 12 90 15 167 2 78 7 143 10 146 6 7 8 -13 9 -108 1 -54 4 -74 14
-72 15 3 16 -15 0 -20 -8 -3 -11 -22 -9 -53 2 -56 10 -73 22 -54 5 9 9 -29 8
-94 -1 -60 2 -111 5 -114 3 -4 7 9 7 28 5 98 38 -364 43 -593 0 -32 4 -58 9
-58 4 0 7 -24 7 -53 0 -59 7 -75 24 -52 6 8 44 24 85 36 103 28 202 79 223
115 14 25 17 67 20 289 3 283 -5 354 -48 400 -25 27 -70 33 -96 13 -29 -24
-37 -79 -44 -304 -8 -255 -11 -264 -85 -284 -62 -17 -67 -7 -68 118 0 106 -5
166 -36 417 -8 72 -20 193 -25 270 -6 77 -17 161 -26 187 -26 81 -92 111 -146
68z m-269 -235 c14 -39 14 -385 0 -385 -5 0 -9 11 -9 24 0 14 -5 28 -11 32 -8
5 -10 42 -7 121 3 62 1 116 -3 119 -5 3 -10 -30 -11 -73 l-2 -78 -5 95 c-4 66
-2 105 6 127 15 38 16 46 4 39 -10 -6 -23 19 -14 27 11 11 40 -17 52 -48z
m794 -407 c-3 -59 -2 -99 3 -95 5 5 7 37 5 73 -2 42 1 64 8 64 8 0 11 -50 11
-155 0 -92 -4 -155 -10 -155 -5 0 -11 33 -13 73 -1 39 -3 11 -3 -63 -1 -74 1
-120 3 -102 7 57 23 24 23 -48 0 -69 -14 -129 -28 -116 -4 4 -12 53 -18 109
-13 126 2 517 20 517 2 0 2 -46 -1 -102z m-801 -20 c5 -15 14 -25 19 -22 5 3
9 0 9 -6 0 -6 22 -21 50 -33 27 -12 50 -27 50 -33 0 -6 -19 -14 -41 -18 -77
-12 -120 43 -118 151 1 55 1 56 10 23 6 -19 15 -47 21 -62z"/>
<path d="M15726 4003 c-6 -14 -5 -15 5 -6 7 7 10 15 7 18 -3 3 -9 -2 -12 -12z"/>
<path d="M15810 3540 c0 -5 5 -10 10 -10 6 0 10 5 10 10 0 6 -4 10 -10 10 -5
0 -10 -4 -10 -10z"/>
<path d="M10701 4150 c-102 -47 -226 -156 -289 -255 -39 -61 -112 -207 -112
-223 0 -12 13 -14 68 -10 79 6 158 41 329 146 126 77 203 102 317 102 127 0
198 -31 405 -179 74 -53 139 -74 207 -69 29 3 56 7 59 10 8 7 -50 122 -103
201 -58 89 -180 211 -257 257 -72 42 -164 52 -244 26 -62 -20 -128 -20 -174
-1 -52 22 -152 19 -206 -5z m209 -35 c17 -9 30 -20 30 -25 0 -14 -7 -13 -58 7
-36 13 -51 14 -95 4 -80 -18 -146 -53 -208 -109 -60 -55 -69 -60 -69 -39 0 14
45 59 102 101 92 68 230 96 298 61z"/>
<path d="M2100 4108 c-41 -24 -50 -35 -50 -65 0 -25 35 -53 67 -53 12 0 34 -5
48 -12 30 -13 34 -54 8 -74 -25 -18 -97 -18 -113 1 -16 20 -30 19 -30 -1 0
-27 32 -43 84 -44 63 0 106 35 106 86 0 36 -37 74 -74 74 -61 1 -82 23 -49 55
11 12 29 16 60 13 51 -4 59 15 12 31 -18 6 -32 11 -33 10 -1 0 -17 -10 -36
-21z"/>
<path d="M2313 4123 l-43 -4 0 -114 c0 -62 3 -120 6 -129 5 -13 22 -16 81 -16
47 0 72 4 68 10 -3 6 -26 10 -50 10 -65 0 -75 7 -75 50 0 40 13 50 72 50 35 0
59 10 52 21 -3 6 -31 7 -65 3 l-60 -7 3 44 3 44 65 1 c73 1 90 18 33 33 -21 6
-40 10 -43 9 -3 -1 -24 -3 -47 -5z"/>
<path d="M2525 4121 l-40 -6 -3 -108 c-4 -142 -1 -147 89 -147 52 0 70 3 67
13 -3 7 -29 14 -64 17 l-59 5 0 35 c0 33 2 35 45 43 95 18 93 17 80 32 -8 10
-18 11 -40 4 -16 -6 -41 -9 -57 -7 -26 3 -28 6 -25 38 2 19 6 39 9 43 3 5 32
7 66 6 34 -2 62 2 64 8 3 9 -64 35 -83 32 -5 -1 -27 -5 -49 -8z"/>
<path d="M3208 4123 l-38 -4 0 -118 c0 -78 4 -121 12 -129 14 -14 148 -17 148
-3 0 14 -27 21 -81 21 l-49 0 0 40 c0 42 4 44 94 52 16 2 31 9 34 17 4 11 -8
12 -62 6 l-67 -7 3 44 3 43 68 0 c44 0 67 4 67 12 0 12 -54 34 -79 31 -9 -1
-33 -3 -53 -5z"/>
<path d="M3652 4122 c-9 -3 -12 -39 -12 -133 0 -108 2 -129 15 -129 11 0 15
12 15 45 0 25 3 45 6 45 12 0 79 -43 105 -67 17 -16 29 -21 33 -14 10 16 -9
45 -38 61 -28 15 -35 40 -11 40 8 0 22 11 31 25 14 21 14 30 4 55 -7 16 -22
35 -34 43 -26 17 -97 35 -114 29z m88 -49 c46 -31 49 -44 18 -73 -15 -14 -33
-20 -53 -18 -29 3 -30 5 -33 56 -3 49 -2 52 20 52 13 0 35 -8 48 -17z"/>
<path d="M17728 4117 c-40 -18 -68 -48 -68 -72 0 -27 15 -41 55 -50 67 -15 85
-26 85 -54 0 -15 -5 -32 -12 -39 -17 -17 -103 -15 -118 3 -15 19 -30 19 -30 2
0 -47 107 -65 161 -26 40 28 41 88 3 118 -15 12 -36 21 -48 21 -35 0 -66 12
-66 25 0 26 38 47 81 44 43 -4 66 14 32 24 -10 2 -25 7 -33 10 -8 3 -27 0 -42
-6z"/>
<path d="M17925 4121 l-40 -6 -3 -114 c-2 -75 1 -118 9 -127 14 -17 149 -20
149 -4 0 6 -22 10 -49 10 -71 0 -81 6 -81 50 0 39 0 39 48 45 26 3 53 7 61 8
8 1 16 8 19 15 3 11 -9 12 -62 7 l-66 -7 0 33 c0 54 10 61 79 57 41 -2 61 1
61 9 0 11 -53 34 -74 32 -6 -1 -29 -5 -51 -8z"/>
<path d="M18138 4123 l-38 -4 0 -114 c0 -62 3 -120 6 -129 5 -13 22 -16 81
-16 66 0 74 2 63 15 -8 10 -31 15 -66 15 l-54 0 0 39 c0 35 3 39 31 45 17 3
44 6 60 6 15 0 31 5 35 11 10 17 -16 28 -43 18 -14 -5 -38 -9 -54 -9 -29 0
-30 1 -27 43 l3 42 68 0 c44 0 67 4 67 12 0 12 -54 34 -79 31 -9 -1 -33 -3
-53 -5z"/>
<path d="M18828 4123 l-38 -4 0 -52 c-1 -29 -3 -75 -6 -102 -3 -28 -1 -63 5
-78 10 -26 13 -27 82 -27 52 0 70 3 67 13 -3 7 -27 13 -60 15 -49 3 -57 6 -62
27 -12 48 4 59 99 67 55 5 21 23 -38 20 l-58 -3 3 43 3 43 65 1 c35 1 66 6 67
11 4 12 -51 34 -76 31 -9 -1 -33 -3 -53 -5z"/>
<path d="M19272 4121 c-12 -8 -25 -201 -16 -236 9 -38 29 -24 29 21 0 33 3 39
20 36 22 -4 85 -48 98 -69 12 -19 27 -16 27 6 0 11 -16 33 -35 48 l-35 29 30
22 c39 29 40 65 2 100 -29 27 -103 54 -120 43z m100 -58 c37 -33 8 -83 -49
-83 l-33 0 0 56 0 57 32 -7 c17 -3 40 -14 50 -23z"/>
<path d="M2908 4015 c-1 -58 -2 -116 -2 -130 -1 -42 19 -29 28 19 6 35 13 46
26 46 11 0 22 5 25 10 3 6 26 10 51 10 l44 0 0 -49 c0 -42 13 -73 24 -60 2 2
6 62 10 132 5 102 4 128 -6 125 -8 -3 -15 -28 -18 -59 l-5 -54 -45 -6 c-25 -3
-57 -9 -72 -13 l-28 -8 0 71 c0 56 -3 71 -15 71 -12 0 -15 -19 -17 -105z"/>
<path d="M3470 4053 c-40 -67 -45 -75 -68 -120 -14 -26 -16 -73 -4 -73 5 0 16
18 26 40 14 32 24 41 51 46 49 9 62 1 75 -45 6 -23 15 -41 20 -41 12 0 13 67
1 74 -5 3 -12 36 -16 73 -7 67 -22 113 -36 113 -5 0 -27 -30 -49 -67z m50 -17
c0 -8 3 -21 6 -30 4 -11 -2 -17 -21 -22 -35 -9 -39 -2 -20 35 16 32 35 41 35
17z"/>
<path d="M18527 4113 c-10 -10 -8 -263 2 -263 12 0 21 26 21 63 0 29 4 33 40
45 22 6 53 12 70 12 27 0 30 -3 30 -32 0 -49 10 -78 27 -78 12 0 13 8 8 41 -4
22 -1 76 6 120 10 60 10 82 1 91 -18 18 -25 4 -30 -56 l-4 -54 -47 -5 c-25 -3
-57 -7 -71 -9 -24 -3 -25 -1 -28 65 -3 62 -9 77 -25 60z"/>
<path d="M19103 4082 c-16 -21 -37 -55 -48 -75 -11 -20 -23 -37 -27 -37 -5 0
-8 -9 -8 -20 0 -10 -5 -31 -12 -45 -9 -19 -9 -28 0 -37 9 -9 16 -2 29 30 18
41 35 52 84 52 27 0 39 -15 39 -50 0 -20 26 -45 33 -33 4 7 -11 97 -27 158 -3
11 -8 37 -11 58 -3 20 -10 37 -15 37 -6 0 -22 -17 -37 -38z m31 -59 c7 -26 -5
-42 -30 -43 -20 0 -22 12 -6 41 21 36 28 36 36 2z"/>
<path d="M13158 3973 c-6 -145 -3 -150 78 -137 81 13 87 38 7 29 l-59 -7 1
113 c0 75 -4 113 -11 116 -8 3 -13 -32 -16 -114z"/>
<path d="M13430 4083 c-24 -9 -61 -46 -76 -75 -21 -41 -18 -110 7 -137 48 -52
107 -54 157 -5 35 33 37 40 40 107 3 62 1 75 -16 90 -21 19 -86 31 -112 20z
m81 -33 c15 -9 19 -22 19 -70 0 -48 -4 -64 -26 -89 -31 -37 -79 -42 -112 -11
-36 34 -29 110 13 156 23 24 74 31 106 14z"/>
<path d="M13610 4061 c0 -16 4 -40 9 -53 6 -13 19 -56 31 -95 12 -40 26 -75
30 -78 13 -8 34 30 71 130 18 50 36 95 41 102 10 12 -6 28 -21 19 -4 -3 -18
-34 -30 -68 -38 -107 -43 -119 -55 -115 -6 2 -16 28 -23 58 -24 108 -29 123
-41 127 -8 2 -12 -7 -12 -27z"/>
<path d="M13830 4054 c0 -17 -3 -65 -6 -106 -6 -68 -5 -77 15 -97 16 -16 33
-21 76 -21 41 0 55 4 55 15 0 10 -15 15 -57 17 l-58 3 -3 37 -3 37 48 6 c26 3
54 7 62 8 8 1 13 7 10 12 -2 6 -28 9 -57 7 l-53 -3 3 43 3 43 58 1 c31 1 60 4
63 7 13 13 -40 27 -96 25 l-60 -2 0 -32z"/>
<path d="M7135 3902 c-3 -3 -5 -56 -5 -118 0 -139 5 -146 94 -142 80 4 79 22
-1 26 l-63 3 0 43 c0 42 1 44 38 50 20 3 50 6 65 6 19 0 27 4 24 13 -3 8 -23
11 -65 9 l-62 -4 0 40 c0 47 14 56 87 50 52 -3 72 16 26 26 -32 7 -130 5 -138
-2z"/>
<path d="M7347 3903 c-12 -11 -8 -251 4 -259 21 -12 28 20 22 97 -4 49 -2 78
5 83 5 3 24 -13 41 -36 18 -24 55 -67 83 -96 69 -71 78 -62 78 72 -1 107 -14
152 -40 136 -11 -7 -12 -13 -2 -35 13 -27 17 -175 5 -175 -11 0 -78 78 -130
152 -49 68 -54 73 -66 61z"/>
<path d="M7660 3896 c0 -9 11 -16 28 -18 l27 -3 3 -103 c2 -88 0 -103 -14
-109 -21 -8 -46 7 -59 35 -11 25 -28 24 -33 -1 -6 -29 44 -69 80 -65 46 4 58
34 58 146 l0 93 30 6 c54 10 27 28 -48 31 -58 2 -72 0 -72 -12z"/>
<path d="M7925 3891 c-44 -26 -66 -65 -72 -127 -6 -52 -5 -55 31 -89 51 -48
100 -49 149 -2 32 30 57 86 57 130 0 11 -7 34 -15 52 -27 55 -93 71 -150 36z
m99 -22 c46 -21 46 -105 -1 -166 -19 -27 -31 -33 -60 -33 -92 0 -114 114 -37
185 29 27 59 31 98 14z"/>
<path d="M8116 3901 c-4 -7 6 -32 23 -60 17 -26 31 -52 31 -58 0 -6 7 -16 15
-23 19 -16 19 -37 0 -74 -14 -26 -13 -46 3 -46 4 0 27 42 51 93 24 50 50 105
58 120 15 29 11 63 -7 52 -9 -6 -26 -41 -50 -102 -15 -39 -31 -34 -53 15 -24
54 -62 98 -71 83z"/>
<path d="M8440 3894 c0 -8 20 -49 45 -90 44 -72 45 -75 30 -104 -17 -33 -20
-60 -5 -60 13 0 120 226 120 255 0 42 -36 -9 -69 -97 -6 -16 -14 -28 -18 -28
-5 0 -23 29 -42 65 -34 63 -61 89 -61 59z"/>
<path d="M8750 3893 c-70 -48 -100 -143 -64 -199 33 -50 99 -67 152 -40 57 29
93 149 62 207 -25 45 -106 63 -150 32z m110 -33 c36 -36 25 -114 -23 -167 -30
-33 -89 -32 -116 3 -35 45 -26 95 28 157 30 33 81 37 111 7z"/>
<path d="M8963 3899 c-16 -16 -17 -129 -1 -181 33 -111 155 -101 187 15 14 49
11 173 -4 170 -5 -2 -13 -38 -16 -80 -9 -113 -30 -153 -80 -153 -45 0 -62 36
-68 147 -5 75 -8 92 -18 82z"/>
<path d="M9211 3896 c-8 -9 -8 -21 -1 -40 6 -17 6 -35 0 -52 -12 -31 -13 -134
-1 -153 16 -25 34 -1 27 39 -3 20 -3 40 0 43 7 7 63 -24 109 -59 37 -28 45
-30 45 -10 0 8 -16 28 -37 45 l-36 30 31 26 c18 15 32 35 32 45 0 59 -135 128
-169 86z m100 -39 c19 -12 35 -30 37 -39 5 -27 -26 -48 -73 -48 -43 0 -43 1
-36 28 4 15 6 33 4 40 -7 19 4 42 20 42 8 0 29 -10 48 -23z"/>
<path d="M527 3868 c-3 -13 -5 -84 -5 -158 0 -120 1 -127 8 -65 12 104 17 245
9 245 -4 0 -9 -10 -12 -22z"/>
<path d="M16137 3868 c-2 -13 -5 -84 -5 -158 0 -94 2 -123 8 -95 4 22 8 83 9
135 1 52 4 105 8 118 3 12 1 22 -5 22 -5 0 -12 -10 -15 -22z"/>
<path d="M2721 3848 c-6 -17 -8 -34 -5 -37 8 -9 34 30 34 51 0 29 -17 21 -29
-14z"/>
<path d="M18342 3867 c-5 -6 -13 -22 -16 -34 -11 -35 17 -29 31 7 12 31 2 49
-15 27z"/>
<path d="M10880 3861 c-65 -13 -100 -38 -100 -71 0 -38 40 -60 110 -60 79 0
90 10 90 80 l0 60 -32 -1 c-18 -1 -49 -4 -68 -8z"/>
<path d="M11018 3864 c-11 -10 -10 -96 1 -113 13 -20 113 -27 151 -11 51 21
55 85 6 109 -33 16 -147 27 -158 15z"/>
<path d="M11242 3793 c2 -12 14 -19 33 -21 l30 -4 -24 21 c-29 26 -44 27 -39
4z"/>
<path d="M10725 3790 c-3 -5 1 -10 9 -10 9 0 16 5 16 10 0 6 -4 10 -9 10 -6 0
-13 -4 -16 -10z"/>
<path d="M2597 3692 c-10 -10 -17 -35 -17 -56 0 -29 -5 -39 -24 -47 -27 -12
-46 -48 -46 -84 0 -36 47 -68 90 -61 19 3 36 10 38 16 5 15 29 12 36 -5 3 -8
12 -15 21 -15 13 0 14 4 5 20 -6 11 -10 41 -8 67 2 30 -1 47 -9 50 -8 3 -13
-5 -13 -22 0 -31 -13 -26 -33 15 -14 26 -13 30 4 46 25 23 25 70 0 84 -25 13
-25 13 -44 -8z m37 -21 c3 -4 -1 -17 -9 -27 -14 -18 -14 -18 -15 9 0 26 13 36
24 18z m-9 -132 c19 -40 19 -41 0 -55 -10 -8 -28 -14 -39 -14 -21 0 -56 27
-56 44 0 13 51 66 64 66 6 0 20 -19 31 -41z"/>
<path d="M2846 3701 c-4 -5 8 -12 26 -16 72 -14 68 -7 68 -120 0 -99 9 -133
27 -101 4 8 6 56 3 106 -3 51 -2 97 1 102 4 6 23 7 46 3 31 -5 42 -3 46 8 4
11 -6 16 -40 21 -68 9 -171 7 -177 -3z"/>
<path d="M3175 3699 c-63 -19 -114 -141 -83 -198 7 -13 29 -32 48 -43 88 -48
180 27 180 146 0 78 -65 120 -145 95z m103 -47 c10 -12 12 -34 8 -72 -4 -45
-10 -60 -36 -82 -40 -37 -78 -36 -115 1 -24 26 -27 35 -22 68 12 70 66 118
122 108 17 -3 36 -13 43 -23z"/>
<path d="M13097 3700 c-41 -12 -57 -29 -79 -80 -17 -39 -18 -50 -7 -83 7 -21
28 -52 47 -68 31 -27 39 -30 95 -27 47 2 63 7 65 19 2 13 -7 15 -58 11 -73 -5
-101 10 -119 65 -11 34 -11 44 6 78 23 49 60 69 113 60 62 -10 103 -78 68
-113 -19 -19 -49 -14 -55 8 -3 11 -9 20 -14 20 -4 0 -13 -9 -19 -20 -12 -23
-35 -26 -43 -7 -6 15 15 47 30 47 6 0 16 7 23 15 10 13 9 15 -12 15 -25 0 -47
-18 -66 -56 -9 -17 -7 -25 7 -41 27 -28 154 -26 176 3 37 49 -4 134 -73 154
-42 11 -47 11 -85 0z"/>
<path d="M18212 3694 c-16 -11 -22 -25 -22 -53 0 -30 -6 -42 -30 -59 -25 -19
-30 -29 -30 -66 0 -48 12 -63 58 -72 22 -5 40 -1 59 11 24 16 27 16 38 1 7 -9
17 -16 24 -16 14 0 15 27 1 35 -14 8 -13 48 1 62 13 13 5 43 -11 43 -5 0 -10
-9 -10 -19 0 -35 -19 -33 -37 3 -15 33 -15 37 0 54 22 24 22 78 1 86 -20 8
-16 9 -42 -10z m34 -30 c-3 -9 -6 -20 -6 -25 0 -6 -4 -7 -10 -4 -16 10 -12 45
6 45 11 0 14 -5 10 -16z m-26 -95 c0 -6 10 -24 21 -41 24 -33 18 -45 -27 -54
-22 -4 -36 -1 -47 11 -23 22 -21 38 6 69 23 27 47 34 47 15z"/>
<path d="M18460 3700 c0 -9 18 -15 65 -22 18 -3 20 -13 25 -112 3 -75 9 -111
18 -114 15 -5 15 -1 16 123 l1 100 44 0 c60 0 64 21 5 29 -71 9 -174 7 -174
-4z"/>
<path d="M18784 3696 c-33 -15 -74 -60 -74 -82 0 -8 -5 -23 -11 -33 -26 -41
27 -126 87 -137 89 -17 167 81 149 187 -11 62 -86 94 -151 65z m110 -48 c37
-45 -3 -160 -61 -174 -38 -10 -74 7 -95 42 -17 29 -17 34 -3 74 8 24 21 50 27
58 32 37 100 37 132 0z"/>
<path d="M13337 3684 c-4 -4 -7 -61 -7 -126 0 -96 3 -118 15 -118 10 0 15 15
17 58 l3 57 49 5 c30 3 51 11 54 19 4 11 -7 13 -52 9 l-56 -5 0 39 0 38 61 0
c44 0 60 3 57 13 -5 13 -129 23 -141 11z"/>
<path d="M13512 3678 c3 -7 15 -15 29 -18 13 -3 24 -11 23 -18 -1 -7 -2 -48
-2 -92 -2 -73 -4 -80 -22 -80 -11 0 -20 -7 -20 -15 0 -12 14 -15 70 -15 56 0
70 3 70 15 0 11 -11 15 -35 15 l-36 0 3 93 3 92 33 3 c20 2 32 9 32 18 0 11
-17 14 -76 14 -55 0 -75 -3 -72 -12z"/>
<path d="M13698 3585 c-1 -58 -2 -113 -2 -122 -1 -15 10 -18 65 -21 50 -2 69
1 79 13 15 18 13 18 -61 15 l-56 -2 5 111 c4 98 3 111 -12 111 -14 0 -16 -15
-18 -105z"/>
<path d="M13925 3678 c-2 -7 -9 -35 -14 -63 -5 -27 -14 -68 -20 -90 -15 -56
-14 -85 3 -85 10 0 17 16 21 48 8 59 25 103 36 96 5 -3 9 -15 9 -27 -1 -97 51
-161 66 -82 3 19 10 38 15 41 5 3 9 15 9 28 0 12 7 31 15 42 13 18 14 16 15
-21 2 -57 23 -119 42 -123 14 -3 15 2 6 35 -5 21 -14 61 -19 88 -20 103 -25
120 -39 120 -14 0 -18 -13 -42 -117 -6 -27 -16 -48 -22 -48 -11 0 -36 86 -36
126 0 34 -36 59 -45 32z"/>
<path d="M11659 3626 c-3 -3 -65 -10 -139 -16 -144 -12 -238 -28 -335 -55
-140 -39 -205 -46 -280 -31 -38 8 -95 22 -125 31 -30 9 -77 23 -105 31 -101
29 -375 46 -375 23 0 -27 95 -191 133 -229 110 -113 192 -158 344 -191 120
-25 138 -23 121 18 -23 52 -54 92 -106 134 -51 42 -66 69 -38 69 29 0 138
-113 164 -170 22 -48 26 -72 29 -200 3 -83 0 -186 -7 -240 -7 -52 -13 -126
-14 -164 -1 -60 2 -70 20 -83 19 -12 24 -12 39 3 14 15 16 29 11 83 -3 36 -10
89 -15 116 -13 67 -14 359 -1 426 20 104 82 153 147 114 54 -32 66 -67 71
-206 2 -70 -1 -162 -6 -206 -12 -85 -8 -123 14 -123 26 0 36 37 24 97 -5 31
-10 122 -10 202 0 124 3 153 20 190 27 59 88 141 106 141 22 0 17 -20 -17 -58
-33 -37 -71 -111 -63 -123 6 -10 56 7 129 42 102 49 192 144 249 264 15 33 32
68 37 78 13 24 -5 50 -22 33z"/>
<path d="M549 3534 c0 -27 -3 -77 -5 -112 -3 -45 -1 -62 6 -57 6 4 9 13 6 20
-2 7 -2 15 0 18 8 8 8 166 1 174 -4 3 -7 -16 -8 -43z"/>
<path d="M5535 3570 c-4 -6 -4 -24 0 -40 5 -23 12 -30 31 -30 14 0 27 7 31 16
5 13 7 13 14 2 7 -10 9 -9 9 5 0 38 -68 75 -85 47z"/>
<path d="M10855 3565 c57 -19 125 -19 125 0 0 12 -15 15 -82 14 -83 -1 -83 -1
-43 -14z"/>
<path d="M11009 3564 c-13 -15 -9 -16 44 -12 81 7 100 28 25 28 -39 0 -60 -5
-69 -16z"/>
<path d="M16159 3528 c0 -29 -3 -79 -5 -110 -3 -39 -1 -58 6 -58 6 0 10 8 9
18 -1 9 -1 19 0 22 7 18 5 172 -1 176 -4 3 -8 -19 -9 -48z"/>
<path d="M5435 3528 c17 -57 64 -61 49 -4 -4 19 -13 26 -31 26 -21 0 -23 -3
-18 -22z"/>
<path d="M5411 3508 c-1 -18 24 -48 41 -48 6 0 2 8 -9 18 -11 9 -22 24 -26 32
-4 12 -6 12 -6 -2z"/>
<path d="M8892 3403 c4 -140 23 -141 23 -1 0 74 -4 103 -13 106 -10 3 -12 -20
-10 -105z"/>
<path d="M7597 3494 c-2 -5 -6 -67 -8 -138 -3 -97 -1 -130 9 -133 8 -3 12 8
12 39 0 24 4 49 8 55 4 7 40 15 80 19 l72 7 0 -57 c0 -42 3 -57 13 -54 8 3 13
41 15 132 2 100 0 127 -10 124 -8 -3 -15 -27 -18 -59 l-5 -54 -55 -8 c-91 -13
-94 -11 -92 53 2 52 -9 93 -21 74z"/>
<path d="M7934 3486 c-39 -18 -70 -60 -84 -118 -10 -38 -9 -51 4 -77 33 -62
121 -81 174 -36 40 34 54 71 50 140 -2 48 -7 61 -28 76 -35 26 -79 32 -116 15z
m95 -35 c21 -16 25 -27 24 -69 -1 -54 -20 -91 -60 -117 -49 -32 -113 8 -113
71 0 99 85 164 149 115z"/>
<path d="M8158 3488 c-24 -19 -35 -230 -13 -252 32 -32 155 18 155 62 0 9 -10
26 -22 39 -17 18 -19 26 -10 35 13 13 16 67 4 84 -9 14 -67 44 -85 44 -7 0
-20 -6 -29 -12z m75 -32 c20 -15 23 -59 5 -74 -7 -5 -24 -12 -38 -14 -24 -3
-25 0 -28 50 -3 49 -2 52 20 52 13 0 31 -7 41 -14z m26 -141 c13 -13 13 -17 1
-29 -19 -17 -80 -37 -91 -30 -11 6 -12 68 -1 78 11 12 74 -1 91 -19z"/>
<path d="M8378 3488 c-12 -10 -17 -40 -22 -123 -3 -60 -2 -116 3 -124 12 -19
96 -9 130 16 35 27 38 50 10 79 -18 19 -20 27 -11 36 17 17 15 74 -5 93 -32
33 -79 43 -105 23z m73 -31 c39 -30 21 -84 -31 -89 -23 -3 -25 0 -28 50 -3 49
-2 52 20 52 13 0 30 -6 39 -13z m28 -142 c13 -13 13 -17 1 -29 -19 -17 -80
-37 -91 -30 -11 6 -12 68 -1 78 11 12 74 -1 91 -19z"/>
<path d="M8712 3477 c-6 -12 -20 -43 -32 -69 -22 -51 -35 -60 -44 -30 -10 31
-65 112 -76 112 -18 0 -10 -22 36 -99 46 -75 46 -76 30 -104 -19 -34 -21 -60
-3 -55 12 5 60 93 85 159 7 19 20 46 28 60 11 22 12 29 1 38 -11 8 -16 5 -25
-12z"/>
<path d="M571 3343 c-11 -41 -12 -153 -1 -153 8 0 23 180 16 187 -3 3 -9 -12
-15 -34z"/>
<path d="M16184 3358 c-10 -30 -13 -168 -4 -168 8 0 23 180 16 187 -2 2 -8 -6
-12 -19z"/>
<path d="M16151 3304 c0 -11 3 -14 6 -6 3 7 2 16 -1 19 -3 4 -6 -2 -5 -13z"/>
<path d="M3435 3290 c-3 -5 -17 -10 -31 -10 -40 0 -62 -17 -94 -73 -56 -98
-31 -182 55 -182 45 0 85 25 85 53 0 11 -8 9 -36 -7 -19 -12 -43 -21 -53 -21
-44 0 -66 70 -38 121 43 81 75 103 107 74 21 -19 40 -13 40 14 0 23 -26 46
-35 31z"/>
<path d="M13182 3288 c-8 -8 -12 -50 -12 -125 0 -94 3 -113 15 -113 10 0 15
10 15 33 0 19 3 37 6 40 8 8 39 -8 85 -44 42 -33 49 -35 49 -15 0 8 -16 27
-35 43 l-34 28 29 20 c22 15 30 28 30 51 0 35 -19 55 -74 78 -46 19 -58 20
-74 4z m86 -38 c60 -37 34 -90 -44 -90 -22 0 -24 4 -24 48 0 69 12 76 68 42z"/>
<path d="M13386 3198 c-8 -117 -3 -143 34 -158 33 -14 102 -10 107 7 3 8 -14
13 -54 15 l-58 3 0 40 0 40 58 9 c39 6 57 13 57 23 0 11 -8 12 -35 7 -69 -13
-70 -12 -73 33 -4 49 13 59 84 48 29 -4 44 -3 44 5 0 17 -47 30 -104 27 l-53
-2 -7 -97z"/>
<path d="M13836 3293 c-3 -3 -6 -62 -6 -130 0 -92 3 -125 13 -129 20 -7 130
21 135 35 3 10 -5 12 -34 7 -22 -4 -50 -8 -63 -9 l-23 -2 1 112 c2 101 -5 134
-23 116z"/>
<path d="M19056 3291 c-4 -6 -22 -11 -41 -11 -63 0 -133 -115 -117 -195 7 -38
50 -68 89 -62 39 7 83 35 83 53 0 19 -9 18 -45 -6 -59 -39 -100 -18 -98 52 2
43 32 99 66 123 27 19 32 19 51 -1 18 -18 36 -11 36 14 0 25 -16 47 -24 33z"/>
<path d="M2843 3283 l-43 -4 -2 -77 c-5 -177 -3 -182 94 -182 45 0 58 3 58 15
0 12 -13 15 -60 15 -55 0 -60 2 -66 24 -13 52 -4 61 63 64 42 2 63 7 67 17 4
12 -7 15 -59 15 l-65 0 0 39 c0 36 2 39 35 45 19 4 51 4 70 0 28 -5 35 -3 35
10 0 9 -6 16 -14 16 -7 0 -26 2 -42 4 -16 2 -48 1 -71 -1z"/>
<path d="M3538 3283 l-38 -4 0 -119 c0 -139 3 -143 95 -138 76 4 74 22 -2 26
l-63 3 0 44 0 44 62 3 c38 2 63 8 66 16 3 9 -14 12 -62 12 l-66 0 0 39 c0 36
2 39 35 45 19 4 51 4 70 0 28 -5 35 -3 35 10 0 12 -9 16 -34 16 -19 0 -40 1
-48 3 -7 2 -30 2 -50 0z"/>
<path d="M18453 3283 l-43 -4 0 -120 0 -119 27 -11 c32 -12 122 -8 126 6 1 6
-25 11 -60 13 l-63 3 0 44 0 44 62 3 c38 2 63 8 66 16 3 9 -14 12 -62 12 l-66
0 0 39 c0 36 2 39 35 45 19 4 51 4 70 0 28 -5 35 -3 35 10 0 9 -6 16 -14 16
-7 0 -26 2 -42 4 -16 2 -48 1 -71 -1z"/>
<path d="M19158 3283 l-36 -4 -7 -103 c-9 -126 -4 -143 39 -151 46 -9 109 -2
114 13 3 9 -13 12 -57 12 -56 0 -61 2 -67 24 -13 52 -4 61 64 64 45 2 62 7 62
17 0 10 -17 15 -62 17 l-61 3 -1 34 c-1 42 27 55 96 46 40 -6 48 -4 48 9 0 12
-10 16 -34 16 -19 0 -40 1 -48 3 -7 2 -29 2 -50 0z"/>
<path d="M2217 3252 c-15 -15 -27 -35 -27 -43 0 -23 33 -49 61 -49 81 0 118
-69 53 -99 -38 -17 -79 -13 -99 9 -23 25 -35 25 -35 1 0 -30 28 -45 83 -45 80
-1 119 36 109 102 -4 28 -56 62 -93 62 -37 0 -51 20 -33 45 12 16 25 20 65 18
67 -2 60 21 -7 25 -43 3 -53 -1 -77 -26z"/>
<path d="M2406 3271 c5 -5 18 -11 29 -13 18 -3 20 -12 20 -97 1 -88 0 -93 -22
-102 -45 -17 -23 -29 53 -29 56 0 75 3 72 13 -3 6 -18 13 -35 15 -28 3 -31 6
-36 54 -4 27 -4 70 0 94 5 42 7 44 39 44 24 0 34 5 34 15 0 12 -16 15 -82 15
-49 0 -78 -4 -72 -9z"/>
<path d="M2597 3273 c-4 -3 -7 -57 -7 -118 0 -86 3 -115 15 -125 21 -17 145
-3 145 17 0 12 -11 13 -65 8 l-66 -7 7 116 c6 99 5 116 -8 116 -8 0 -18 -3
-21 -7z"/>
<path d="M3016 3153 c1 -71 3 -130 3 -132 1 -2 8 2 17 10 12 10 15 30 14 83
-3 101 -3 102 18 78 134 -162 155 -183 170 -167 11 11 15 177 5 215 -6 21 -16
36 -28 38 -15 3 -17 0 -11 -19 4 -13 10 -59 13 -101 5 -63 3 -78 -8 -78 -15 0
-71 62 -133 148 -21 28 -43 52 -50 52 -8 0 -11 -35 -10 -127z"/>
<path d="M11052 3263 c-22 -20 -46 -83 -35 -93 5 -4 37 -4 73 -1 58 5 65 9 68
29 2 14 -7 33 -27 52 -34 34 -51 37 -79 13z"/>
<path d="M13701 3258 c-12 -12 -34 -43 -48 -68 -14 -25 -29 -47 -32 -50 -12
-10 -33 -82 -26 -88 4 -4 15 4 26 18 35 46 39 50 64 56 37 9 52 -1 59 -40 4
-22 13 -36 21 -36 8 0 15 1 15 3 0 11 -50 220 -54 224 -2 2 -14 -6 -25 -19z
m12 -96 c-7 -2 -20 -2 -29 0 -13 2 -12 8 8 33 l23 29 5 -29 c4 -20 1 -31 -7
-33z"/>
<path d="M17837 3260 c-14 -11 -29 -30 -32 -41 -9 -28 21 -59 56 -59 37 0 77
-19 84 -40 18 -58 -72 -94 -128 -50 -29 23 -44 12 -25 -19 21 -34 118 -39 157
-8 21 17 32 58 26 89 -7 30 -55 58 -102 58 -30 0 -41 26 -19 48 12 12 31 16
66 15 39 -2 48 1 43 12 -8 23 -94 20 -126 -5z"/>
<path d="M18020 3271 c0 -5 10 -11 23 -13 21 -3 22 -8 25 -99 3 -96 3 -97 -23
-103 -50 -13 -24 -26 51 -26 56 0 75 3 72 13 -3 6 -19 13 -36 15 l-32 3 0 95
0 94 35 0 c24 0 35 5 35 15 0 12 -15 15 -75 15 -41 0 -75 -4 -75 -9z"/>
<path d="M18210 3155 c0 -101 3 -127 15 -131 25 -10 138 10 143 25 4 11 -8 12
-62 7 l-66 -8 0 116 c0 96 -3 116 -15 116 -13 0 -15 -21 -15 -125z"/>
<path d="M18628 3270 c-1 -5 -2 -64 0 -130 2 -88 6 -120 15 -117 8 2 14 38 17
97 l5 94 25 -34 c14 -19 53 -63 87 -99 77 -80 83 -76 83 59 0 107 -6 140 -26
140 -10 0 -12 -22 -8 -107 l5 -108 -55 60 c-31 33 -70 81 -88 107 -32 46 -53
59 -60 38z"/>
<path d="M8890 3246 c0 -9 7 -16 16 -16 9 0 14 5 12 12 -6 18 -28 21 -28 4z"/>
<path d="M597 3210 c-4 -16 -2 -40 3 -52 7 -18 9 -12 9 30 1 58 -4 67 -12 22z"/>
<path d="M16207 3210 c-4 -16 -2 -40 3 -52 7 -18 9 -12 9 30 1 58 -4 67 -12
22z"/>
<path d="M572 3150 c0 -14 2 -19 5 -12 2 6 2 18 0 25 -3 6 -5 1 -5 -13z"/>
<path d="M16182 3150 c0 -14 2 -19 5 -12 2 6 2 18 0 25 -3 6 -5 1 -5 -13z"/>
<path d="M583 2950 c0 -47 2 -66 4 -42 2 23 2 61 0 85 -2 23 -4 4 -4 -43z"/>
<path d="M16192 3005 c0 -16 2 -22 5 -12 2 9 2 23 0 30 -3 6 -5 -1 -5 -18z"/>
<path d="M16193 2920 c0 -30 2 -43 4 -27 2 15 2 39 0 55 -2 15 -4 2 -4 -28z"/>
<path d="M631 2854 c0 -11 3 -14 6 -6 3 7 2 16 -1 19 -3 4 -6 -2 -5 -13z"/>
<path d="M16241 2854 c0 -11 3 -14 6 -6 3 7 2 16 -1 19 -3 4 -6 -2 -5 -13z"/>
</g>
</svg>
